<svg version="1.1" id="Layer_1" xmlns="http://www.w3.org/2000/svg" xmlns:xlink="http://www.w3.org/1999/xlink" x="0px" y="0px"
	 width="100%" viewBox="-95 -15 710 670" enable-background="new 0 0 496 640" xml:space="preserve" overflow="visible">
<path class="graph-part" data-service="strategie" fill="#444444" opacity="1.000000" stroke="none" 
	d="
M477.322510,47.774582 
	C484.041016,57.379684 487.453766,67.525032 486.380951,79.045547 
	C485.538605,88.091187 487.701752,97.264923 484.414490,106.251785 
	C475.276367,131.233780 449.940826,148.863251 423.291351,149.372650 
	C407.862335,149.667587 393.506317,147.027435 380.550476,138.433884 
	C378.294800,136.937714 376.537476,137.533081 374.551636,138.596802 
	C326.831116,164.158478 279.104614,189.709000 231.384155,215.270798 
	C211.268326,226.045959 191.131241,236.782394 171.085434,247.686432 
	C167.664444,249.547287 165.877289,249.101227 164.084061,245.572220 
	C159.406494,236.366913 154.506653,227.268768 149.459671,218.259995 
	C147.620453,214.977020 147.775284,213.145401 151.369614,211.233963 
	C191.227127,190.038101 231.016541,168.714096 270.813171,147.403870 
	C296.804108,133.486328 322.752411,119.488853 348.787323,105.654182 
	C352.167206,103.858147 353.051819,101.880623 352.207581,98.082825 
	C344.046997,61.372883 367.976593,25.540173 407.039154,19.090828 
	C435.599518,14.375427 459.491730,23.881403 477.322510,47.774582 
M401.808228,53.319809 
	C380.025513,64.248009 375.052490,89.530144 391.219360,107.151901 
	C402.991669,119.983635 425.367279,122.556664 440.372314,112.804169 
	C454.901978,103.360626 460.772766,88.375664 455.662292,73.777008 
	C448.327271,52.823536 423.574860,43.150341 401.808228,53.319809 
z"/>
<path class="graph-part" data-service="automatisation" fill="#444444" opacity="1.000000" stroke="none" 
	d="
M318.505707,394.375427 
	C329.338715,389.166962 339.829041,384.102020 350.376587,379.159210 
	C353.633270,377.633026 354.931580,376.041809 354.045227,371.883484 
	C346.117065,334.688873 370.150299,298.793976 407.674500,293.094330 
	C444.828461,287.450958 476.430420,309.758942 482.684509,344.047302 
	C489.910645,383.665253 468.296906,415.697174 430.237061,422.603668 
	C413.563416,425.629333 396.968262,423.539490 382.436829,413.325653 
	C380.331451,411.845856 378.509796,411.499756 376.024658,412.648560 
	C338.980408,429.772491 302.528076,448.048920 266.751892,467.702515 
	C236.830811,484.139587 207.510147,501.572845 178.569855,519.657898 
	C175.868881,521.345764 174.449951,520.763123 172.938736,518.338196 
	C167.215347,509.154510 161.537827,499.937744 155.578415,490.908020 
	C153.452286,487.686432 154.199432,486.015228 157.211212,484.166412 
	C189.135956,464.569000 221.238113,445.300720 254.247742,427.539886 
	C275.375244,416.172211 296.814026,405.442841 318.505707,394.375427 
M446.740479,337.782562 
	C439.376434,328.189972 429.812012,322.919800 417.555725,323.360138 
	C403.660065,323.859375 393.382324,330.556061 387.346039,342.905518 
	C380.902405,356.088257 382.576721,368.890106 391.812805,380.257874 
	C400.443634,390.880737 412.052917,394.725952 425.315338,392.160767 
	C450.118744,387.363373 461.274353,358.945557 446.740479,337.782562 
z"/>
<path class="graph-part" data-service="solutions" fill="#6e8b7b" opacity="1.000000" stroke="none" 
	d="
M135.458054,601.476746 
	C108.027649,626.681824 57.070095,622.907043 35.462952,586.358459 
	C13.743000,549.618958 30.095358,502.969910 70.703934,489.638580 
	C109.294441,476.969727 147.442520,498.997955 155.735229,536.818848 
	C161.135147,561.446594 155.189972,583.743469 135.458054,601.476746 
M98.549835,517.849060 
	C79.086845,514.616821 60.552376,527.035767 57.436489,545.396912 
	C54.197155,564.485535 66.467583,582.505981 85.361694,586.407959 
	C102.857079,590.021118 121.647575,577.784607 125.637497,560.179993 
	C130.046432,540.726624 118.836609,522.776672 98.549835,517.849060 
z"/>
<path class="graph-part" data-service="accompagnement" fill="#444444" opacity="1.000000" stroke="none" 
	d="
M72.009132,342.317993 
	C39.315742,344.832092 7.366134,312.857147 7.371204,278.152771 
	C7.375678,247.535904 28.361092,217.092911 63.144234,212.059189 
	C100.867470,206.599976 131.450623,230.426178 137.521255,263.338226 
	C144.780670,302.695282 122.351334,333.965149 86.454468,341.792786 
	C81.831879,342.800781 77.152870,342.099731 72.009132,342.317993 
M80.630814,311.410126 
	C81.422897,311.155212 82.218895,310.911865 83.006477,310.643738 
	C96.611465,306.012329 105.506821,296.841949 107.559181,282.547638 
	C109.811478,266.860687 103.716331,254.611115 89.778076,246.586288 
	C76.530022,238.958847 56.502319,242.393143 47.363270,253.853226 
	C35.403381,268.850555 35.418842,287.430725 47.204773,300.380188 
	C56.068867,310.119354 67.150352,313.004547 80.630814,311.410126 
z"/>
<path class="graph-part" data-service="strategie" fill="#444444" opacity="1.000000" stroke="none" 
	d="
M151.218658,305.704895 
	C159.817245,309.219971 166.979599,314.683868 174.520309,319.471375 
	C201.593658,336.659973 228.829727,353.631836 254.405930,373.041595 
	C262.184601,378.944824 270.393066,384.750336 272.703766,395.268494 
	C272.807526,395.740875 272.848816,396.227020 272.971375,397.062195 
	C267.629211,399.689575 261.829712,401.063019 256.113922,402.546722 
	C250.247742,404.069519 244.714539,406.299957 239.666595,409.558655 
	C237.283554,411.097046 235.601791,411.010040 233.458221,409.296509 
	C205.211792,386.716492 174.128433,368.329590 143.835251,348.775177 
	C140.062897,346.340118 136.264023,343.941956 132.411453,341.636932 
	C130.361801,340.410614 129.536606,339.245026 131.044983,336.867645 
	C137.630005,326.488922 143.756958,315.818909 151.218658,305.704895 
z"/>
<path class="graph-part" data-service="automatisation" fill="#444444" opacity="1.000000" stroke="none" 
	d="
M442.062988,208.104370 
	C441.780212,230.345505 440.966492,252.041351 436.509918,273.458557 
	C435.734039,277.187134 434.259460,277.558746 431.061859,276.836121 
	C420.873535,274.533630 410.651886,272.370667 400.411743,270.309509 
	C396.807861,269.584106 395.592224,268.320435 396.374146,264.222626 
	C400.565430,242.257843 401.249298,220.017319 400.617126,197.725952 
	C400.442993,191.586166 399.953644,185.446014 399.341797,179.332748 
	C399.110535,177.021729 399.514496,175.900070 401.975708,175.688553 
	C413.058746,174.736023 424.131531,173.664429 435.215485,172.723221 
	C437.762482,172.506943 440.190308,172.450714 440.347870,176.289810 
	C440.776672,186.738632 441.472931,197.176483 442.062988,208.104370 
z"/>
<path class="graph-part" data-service="accompagnement" fill="#444444" opacity="1.000000" stroke="none" 
	d="
M87.513802,402.538910 
	C88.558350,419.080353 90.152206,435.085388 93.170677,450.926483 
	C93.667175,453.532166 92.592384,454.875000 89.865227,455.372559 
	C78.761024,457.398560 67.676872,459.539307 56.609230,461.757050 
	C53.975842,462.284729 53.056091,461.356232 52.646008,458.845093 
	C49.566032,439.984680 47.224403,421.082855 46.497562,401.935455 
	C46.036442,389.787903 46.436485,377.703735 46.607834,365.587830 
	C46.658459,362.008087 47.682392,360.388153 51.460339,360.649231 
	C62.562271,361.416504 73.673401,362.057190 84.785141,362.671356 
	C87.527771,362.822968 88.059387,364.334595 87.849586,366.673828 
	C86.792259,378.462494 87.446922,390.273376 87.513802,402.538910 
z"/>
<text class="graph-part branch-label" data-service="strategie" fill="#444444" font-family="Montserrat, sans-serif" font-size="35" font-weight="500" x="418" y="2" text-anchor="middle">Stratégie digitale</text>
<text class="graph-part branch-label" data-service="automatisation" fill="#444444" font-family="Montserrat, sans-serif" font-size="35" font-weight="500" x="505" y="342" text-anchor="start">
	<tspan x="505" dy="0">Automatisation</tspan>
	<tspan x="505" dy="35">&amp; optimisation</tspan>
</text>
<text class="graph-part branch-label" data-service="solutions" fill="#444444" font-family="Montserrat, sans-serif" font-size="35" font-weight="500" x="95" y="660" text-anchor="middle">Solutions web sur mesure</text>
<text class="graph-part branch-label" data-service="accompagnement" fill="#444444" font-family="Montserrat, sans-serif" font-size="35" font-weight="500" x="5" y="265" text-anchor="end">
	<tspan x="-10" dy="0">Accompagnement</tspan>
	<tspan x="-10" dy="35">personnalisé</tspan>
</text>
</svg>